<?xml version="1.0" encoding="UTF-8" standalone="no"?>
<svg
   xmlns:dc="http://purl.org/dc/elements/1.1/"
   xmlns:cc="http://creativecommons.org/ns#"
   xmlns:rdf="http://www.w3.org/1999/02/22-rdf-syntax-ns#"
   xmlns:svg="http://www.w3.org/2000/svg"
   xmlns="http://www.w3.org/2000/svg"
   xmlns:xlink="http://www.w3.org/1999/xlink"
   xmlns:sodipodi="http://sodipodi.sourceforge.net/DTD/sodipodi-0.dtd"
   xmlns:inkscape="http://www.inkscape.org/namespaces/inkscape"
   width="1500"
   height="600"
   id="svg2"
   version="1.1"
   inkscape:version="0.48.4 r9939"
   sodipodi:docname="ctcth10.svg">
  <metadata
     id="metadata1028">
    <rdf:RDF>
      <cc:Work
         rdf:about="">
        <dc:format>image/svg+xml</dc:format>
        <dc:type
           rdf:resource="http://purl.org/dc/dcmitype/StillImage" />
        <dc:title></dc:title>
      </cc:Work>
    </rdf:RDF>
  </metadata>
  <defs
     id="defs1026">
    <linearGradient
       id="linearGradient4530">
      <stop
         style="stop-color:#a98d03;stop-opacity:1;"
         offset="0"
         id="stop4532" />
      <stop
         style="stop-color:#a98d03;stop-opacity:0.3219178021;"
         offset="1"
         id="stop4534" />
    </linearGradient>
    <linearGradient
       inkscape:collect="always"
       xlink:href="#linearGradient4530"
       id="linearGradient4568"
       gradientUnits="userSpaceOnUse"
       x1="415.0969499038769"
       y1="499.190438043202"
       x2="430.6306779756398"
       y2="499.190438043202"
       gradientTransform="matrix(0,0.8713256688716713,-0.8959827677020888,0,876.5059094932116,118.8468862782204)" />
    <linearGradient
       inkscape:collect="always"
       xlink:href="#linearGradient4530"
       id="linearGradient4571"
       gradientUnits="userSpaceOnUse"
       x1="428.8587266860458"
       y1="499.1904380432021"
       x2="446.5507254336499"
       y2="499.1904380432021"
       gradientTransform="matrix(0,0.8713256688716713,-0.8959827677020888,0,876.3577725975162,116.0125069624813)" />
    <linearGradient
       inkscape:collect="always"
       xlink:href="#linearGradient4530"
       id="linearGradient4574"
       gradientUnits="userSpaceOnUse"
       x1="441.1218000961232"
       y1="499.1904380432021"
       x2="460.6843000961231"
       y2="499.1904380432021"
       gradientTransform="matrix(0,0.8713256688716713,-0.8959827677020888,0,876.3577725975162,116.3881130808929)" />
    <linearGradient
       inkscape:collect="always"
       xlink:href="#linearGradient4530"
       id="linearGradient4582"
       gradientUnits="userSpaceOnUse"
       gradientTransform="matrix(0.3480032291317814,0.7988129779544882,-0.8214180856060856,0.3578511543342128,735.2376414909829,-38.84980065818869)"
       x1="441.1218000961232"
       y1="499.1904380432021"
       x2="460.6843000961231"
       y2="499.1904380432021" />
    <linearGradient
       inkscape:collect="always"
       xlink:href="#linearGradient4530"
       id="linearGradient4584"
       gradientUnits="userSpaceOnUse"
       gradientTransform="matrix(0.3480032291317814,0.7988129779544882,-0.8214180856060856,0.3578511543342128,734.6049655141908,-38.94022364502378)"
       x1="428.8587266860458"
       y1="499.1904380432021"
       x2="446.5507254336499"
       y2="499.1904380432021" />
    <linearGradient
       inkscape:collect="always"
       xlink:href="#linearGradient4530"
       id="linearGradient4586"
       gradientUnits="userSpaceOnUse"
       gradientTransform="matrix(0.3480032291317814,0.7988129779544882,-0.8214180856060856,0.3578511543342128,735.3956572955626,-35.70406027331813)"
       x1="415.0969499038769"
       y1="499.190438043202"
       x2="430.6306779756398"
       y2="499.190438043202" />
    <clipPath
       clipPathUnits="userSpaceOnUse"
       id="clipPath4632">
      <path
         inkscape:connector-curvature="0"
         id="path4634"
         d="M -1.818989403545856e-12,-2.273736754432321e-13 1500,-2.273736754432321e-13 1500,600 -1.818989403545856e-12,600 z"
         style="color:#000000;fill:#797249;fill-opacity:1;fill-rule:nonzero;stroke:none;stroke-width:1;marker:none;visibility:visible;display:inline;overflow:visible;enable-background:accumulate" />
    </clipPath>
  </defs>
  <sodipodi:namedview
     pagecolor="#aabead"
     bordercolor="#000000"
     borderopacity="1"
     objecttolerance="10"
     gridtolerance="10"
     guidetolerance="10"
     inkscape:pageopacity="1"
     inkscape:pageshadow="2"
     inkscape:window-width="1920"
     inkscape:window-height="1014"
     id="namedview1024"
     showgrid="false"
     borderlayer="true"
     inkscape:showpageshadow="false"
     fit-margin-top="0"
     fit-margin-left="0"
     fit-margin-right="0"
     fit-margin-bottom="0"
     inkscape:zoom="1.193333333333333"
     inkscape:cx="750"
     inkscape:cy="300"
     inkscape:window-x="-4"
     inkscape:window-y="-4"
     inkscape:window-maximized="1"
     inkscape:current-layer="svg2"
     showguides="true"
     inkscape:guide-bbox="true"
     inkscape:snap-global="false" />
  <path
     style="color:#000000;fill:#797249;fill-opacity:1;fill-rule:nonzero;stroke:none;stroke-width:1;marker:none;visibility:visible;display:inline;overflow:visible;enable-background:accumulate;opacity:1"
     d="M -1.818989403545856e-12,-2.273736754432321e-13 1500,-2.273736754432321e-13 1500,600 -1.818989403545856e-12,600 z"
     id="rect4097"
     inkscape:connector-curvature="0" />
  <g
     id="g4626"
     clip-path="url(#clipPath4632)">
    <path
       sodipodi:nodetypes="cccccsc"
       inkscape:connector-curvature="0"
       id="path4149"
       d="M 209.7618439726352,517.0433385418956 963.7786428856678,89.81653149427592 993.4060220091131,86.85379358193142 1516.759776536383,366.201117318425 l 4.393274317877,182.6568961541981 c -162.031505077897,20.7298525392179 -335.382909668813,30.1922658569846 -511.376514541364,30.1922658569846 -272.867117447812,0 -542.8554320617768,-18.5084313212941 -800.0146923402608,-62.0069407877121 z"
       style="opacity:0.77;color:#000000;fill:#ffe200;fill-opacity:1;fill-rule:nonzero;stroke:none;stroke-width:1.06299209590000010;marker:none;visibility:visible;display:inline;overflow:visible;enable-background:accumulate" />
    <path
       sodipodi:nodetypes="cccccc"
       inkscape:connector-curvature="0"
       id="path4147"
       d="M 86.58601557963993,149.2194261610875 1037.84709069428,517.6358860368227 C 680.7445150455622,556.6064059238725 323.0542023286182,571.8744357960431 -6.703910614525442,576.5363128491609 L -6.221749615923465,150.5526586973385 43.55224731146424,138.7017070479604 z"
       style="opacity:0.77;color:#000000;fill:#ffe200;fill-opacity:1;fill-rule:nonzero;stroke:none;stroke-width:1.06299209590000010;marker:none;visibility:visible;display:inline;overflow:visible;enable-background:accumulate" />
  </g>
  <path
     style="opacity:1;fill:#27241c;fill-opacity:1;stroke:none"
     d="m 945.5775181901093,411.3288707731603 0,1.2138620168328 -11.7280515721742,1.1174004485617 -5.266016663491,0.096461568271 0,4.4508273950553 11.7339994960562,0 2.0231033613882,15.7802062188342 13.3524821851689,0 2.0231033613881,-10.9247581514998 c -1.763903358727,4.04620662e-5 -1.762163489836,-3.843491765968 -2.0231033613881,-5.2600687396122 l 14.970964874279,0.8092413445564 0,-0.4046206722782 -2.0231033613881,0 0,-0.4046206722776 21.4448956307242,0 0,-0.4046206722777 -2.0231033613892,0 0,-0.8092413445555 2.0231033613892,0 0,-2.0231033613887 c -1.9474392956741,-0.00687855143 -3.106272901077,-0.1261607256162 -4.4508273950561,-1.6184826891111 l -0.8092413445561,0 -0.4046206722778,1.6184826891111 -7.2831721010002,-0.4046206722776 c -2.2869160397149,-2.6204043978058 -7.8014911821888,0.517388453641 -9.7108961346679,-2.4277240336671 l -0.404620672277,0 -6.473930756446,1.6184826891111 c -0.711889610805,-1.2355699159004 -2.130368301609,-0.9829449991645 -2.4277240336661,0.4046206722777 l -0.4046206722769,0 c -0.8734951073119,-1.2358733814054 -1.8409431347289,-1.1897870868332 -3.2369653782229,-0.8092413445553 -0.6076593256271,-1.2749111838671 -2.5804278753831,-2.4075456007403 -2.8323447059419,-0.4046206722776 l -6.0693100841693,-1.2138620168324 z"
     id="path48"
     inkscape:connector-curvature="0" />
  <path
     style="opacity:1;fill:#c8c8c8;fill-opacity:1;stroke:none"
     d="m 1371.209122978116,449.2382665920572 -10.879100093434,35.1608279957941 16.318650140152,0 c 0,-10.119476355718 16.922440195327,-25.849955654712 -5.439550046718,-35.1608279957941 z"
     id="path58"
     inkscape:connector-curvature="0" />
  <path
     style="opacity:1;fill:#4a3e82;fill-opacity:1;stroke:none"
     d="m 1249.627970731488,434.2307944173024 c 48.207392183855,-5.9776040002829 24.222272951978,46.9898380194581 13.882581902339,84.8144452438099 l -4.365342492787,-14.7737563877703 -17.009095417305,-0.8175541616698 -1.789394034403,12.8597098463548 -2.991958544754,-57.8687686391738 -24.153790771014,-62.3747981134838 -0.66855974028,35.568590617891 c -13.61237142224,-13.96895953285 -7.545094249504,-42.8901541021064 -8.062125245297,-65.1161033934441 l 13.59479823018,-2.1079106064315 c 32.970224423339,3.6212603941248 31.05480998138,35.7509582023739 31.56288611332,69.8161455939163 z"
     id="path152"
     inkscape:connector-curvature="0"
     sodipodi:nodetypes="ccccccccccc" />
  <path
     style="opacity:1;fill:#836724;fill-opacity:1;stroke:none"
     d="m 1415.795331506386,466.1933319839917 -4.603073319136,-0.3173750783632 3.919013320356,-2.3616708030479 c -3.269520495573,-1.0679371228249 -4.81344009361,-0.1614231021615 -8.008625373649,0.025433261717 -4.832133889678,0.2827734466191 -9.473191575651,-0.499874607411 -14.084148861452,1.3131538613366 l 4.434287470749,4.7766133833336 6.355552972233,0.413292515013 15.318562584465,0.08533472368 -2.170444071181,-0.7629027153417 4.951985484122,-6.2254942218116 c -2.260366498003,-0.706883023253 -4.813569140591,1.2920843076449 -6.113110206507,3.0536150734847 m -0.883171002302,-5.3502074911662 4.348772414024,1.0408564354243 c -0.84747500501,-1.3547740543386 -2.929069456182,-1.4662288403432 -4.348772414024,-1.0408564354243 z"
     id="path158"
     inkscape:connector-curvature="0" />
  <path
     style="opacity:1;fill:#47515b;fill-opacity:1;stroke:none"
     d="m 1474.514434015603,452.3405654684217 -33.404651585357,20.3985915904812 -0.189389125676,6.5467952265487 25.487419712646,35.1431768477711 5.765618121141,-24.7930290709575 2.341002877247,-37.2955345938425 z"
     id="path180"
     inkscape:connector-curvature="0" />
  <path
     style="opacity:1;fill:#333333;fill-opacity:1;stroke:none"
     d="m 1382.115870994438,485.4196733263301 -1.155027552064,3.880602643062 -0.136831517068,12.8826064393983 -6.315152129132,3.0655742912924 -15.802023150499,-19.7605687100019 z"
     id="path278"
     inkscape:connector-curvature="0"
     sodipodi:nodetypes="cccccc" />
  <path
     style="opacity:1;fill:#304249;fill-opacity:1;stroke:none"
     d="m 1391.626189579885,411.9923856982301 -6.927005872808,8.5286642195116 -30.911340184648,3.2033166934043 c 5.288745970398,-25.995733995573 15.363849121493,-23.2906129567973 37.838346057457,-11.7319809129161 z"
     id="path354"
     inkscape:connector-curvature="0" />
  <path
     style="opacity:1;fill:#22272c;fill-opacity:1;stroke:none"
     d="m 1469.484226448682,491.2876704552129 2.755488606109,24.100161003043 -32.761936451102,0 0.949224671027,-6.0250402507613 26.209549160883,0 -10.257100567359,-18.0751207522818 13.10477458044,0 z"
     id="path366"
     inkscape:connector-curvature="0" />
  <path
     style="opacity:1;fill:#202f33;fill-opacity:1;stroke:none"
     d="m 1190.99480310996,474.2643763267 -0.112211338299,0.8361531585014 c -11.947419586506,6.361332222611 -0.948025272085,22.5110940499053 -4.151819516796,30.9376668645552 -6.258871023072,-3.7724540927613 -15.834506844589,-7.8465294209416 -23.174637439522,-2.5374830220459 l 26.662281503709,3.5067402890164 2.702164696147,6.8223293764793 -42.05282070655,-0.2733160489288 c 0.675848890528,-5.0361504736541 0.54203213586,-12.4425995578524 13.137219859865,-13.4003662505721 l 4.775966616437,-8.2264309149197 -12.38254142185,-25.9571144057422 z"
     id="path386"
     inkscape:connector-curvature="0"
     sodipodi:nodetypes="ccccccccccc" />
  <path
     style="opacity:1;fill:#84919f;fill-opacity:1;stroke:none"
     d="m 1460.680163216735,395.7402275000805 20.463130547669,29.5578552355197 -18.189449375705,0 -2.273681171963,-6.8210435158879 -34.105217579447,-6.82104351589 c 5.61826617592,-16.9252826440935 22.95281143097,-5.6228135382671 29.557855235525,4.5473623439266 l 0,-20.4631305476686 4.547362343927,0 z"
     id="path428"
     inkscape:connector-curvature="0" />
  <path
     style="opacity:1;fill:#0e1025;fill-opacity:1;stroke:none"
     d="m 1191.656584153993,325.317992194477 -0.06478930074,14.1661308501956 -8.094931914401,0 0.279849096839,2.0237329785958 6.0711989358,0 0.215059796135,16.1898638287934 10.958212183515,6.0711989357957 33.843762442506,-4.0474659571985 -0.279849096838,-2.0237329786037 -10.118664892997,0 c -5.964910897741,-15.0221699001431 -15.747223641823,-31.8636757480412 -32.809847249835,-32.3797276575838 z"
     id="path474"
     inkscape:connector-curvature="0" />
  <path
     style="opacity:1;fill:#8c8178;fill-opacity:1;stroke:none"
     d="m 1148.787713828204,444.519633418271 -0.127410237985,4.0402654100777 5.091359023579,-4.6344401744484 -0.127410237983,4.0402654100764 -10.182718047161,9.2688803488961 -0.127410237983,4.0402654100765 47.43272722953,11.7641273880686 c -0.05217629078,-30.5972827247467 -29.824873233019,-35.1694466074537 -41.959137492006,-28.5193637927471 z"
     id="path574"
     inkscape:connector-curvature="0" />
  <path
     style="opacity:1;fill:#232323;fill-opacity:1;stroke:none"
     d="m 1405.246005128128,516.1275691128728 c -10.07382560034,-15.9966765625263 -22.464301549258,-6.1684337456097 -35.447656826847,-11.6183230877442 l -2.017482205466,1.074050545928 -0.289007623855,10.3170776381545 37.754146656171,0.2271949036618 z"
     id="path588"
     inkscape:connector-curvature="0" />
  <path
     style="opacity:1;fill:#583b2c;fill-opacity:1;stroke:none"
     d="m 1152.33002131499,448.3290650511306 0,-1.081709314971 -3.245127944912,-1.0817093149728 c 1.503575947811,-2.5052387734745 3.383586737231,-2.5679779137425 0,-3.245127944914 l 0,-1.0817093149727 c 4.99749703517,-1.6431164494401 5.199776677071,-6.0305294309687 5.408546574859,-10.8170931497188 l 5.408546574858,0 0,-1.0817093149728 -2.163418629942,0 0,-1.0817093149709 2.163418629942,-2.1634186299437 6.490255889833,2.1634186299437 16.225639724576,-7.5719652048027 c 4.140999599575,-0.4662167147524 6.284514778124,-1.3294207481005 7.571965204802,-5.408546574861 l -18.389058354522,4.3268372598885 0,-1.0817093149709 3.245127944916,-3.2451279449155 -8.653674519775,2.1634186299451 1.081709314973,3.2451279449156 -24.879314244351,6.4902558898288 2.163418629947,2.1634186299452 -9.735383834744,3.2451279449161 -5.408546574859,3.245127944914 -9.735383834747,0 0,3.2451279449148 22.715895614413,2.1634186299437 c -3.607500565432,6.1798053164354 -11.699767950738,6.74878441611 -18.389058354523,6.4902558898314 l -1.081709314974,3.2451279449142 -6.49025588983,-1.0817093149705 0,1.0817093149705 2.163418629945,2.1634186299448 33.532988764127,-5.408546574859 z"
     id="path792"
     inkscape:connector-curvature="0" />
  <path
     style="opacity:1;fill:#b74000;fill-opacity:1;stroke:none"
     d="m 1474.254377114819,450.1674673165203 -29.042260986825,0 0,-4.8403768311368 19.361507324551,0 -4.840376831137,-19.3615073245493 -24.201884155687,4.8403768311381 c 18.647067704279,-21.3412214484857 35.185667260905,-1.5343994554713 38.723014649099,19.3615073245476 z"
     id="path814"
     inkscape:connector-curvature="0" />
  <path
     style="opacity:1;fill:#836724;fill-opacity:1;stroke:none"
     d="m 1335.136246006901,426.0086028580032 0,4.5505525948247 27.303315568946,0 c 4.451805603514,15.7631141884699 11.255791843301,20.3955767299976 27.303315568945,22.7527629741194 l -13.651657784473,-9.1011051896475 0,-4.550552594825 13.651657784473,0 -4.550552594822,-18.2022103792966 -50.056078543069,4.5505525948248 z"
     id="path930"
     inkscape:connector-curvature="0" />
  <path
     style="opacity:1;fill:#363636;fill-opacity:1;stroke:none"
     d="m 1077.282473395564,371.2552549146504 1.720520076987,13.7641606159001 15.484680692888,0 0,-8.6026003849376 -6.882080307951,-6.88208030795 -10.323120461924,1.7205200769877"
     id="path4027"
     inkscape:connector-curvature="0" />
  <path
     style="opacity:1;fill:#3d3323;fill-opacity:1;stroke:none"
     d="m 852.0915931696602,377.8361936275242 -2.117151030579,-3.0452849372859 -0.6242825398199,1.9832827792193 4.4853674782912,2.8501451662262 -2.6192818648419,3.4355644794064 0.8719669539369,0.8940715040856 3.7389332329122,0.3358613079724 0.8719669539349,0.8940715040856 -3.9899986500391,2.9045634003731 0.871966953936,0.8940715040859 1.8694666164562,0.1679306539867 c 0.1554710566719,2.7992432144026 2.0402389322729,6.5380825225177 5.978235969048,7.8787128827311 l 0.8719669539381,0.8940715040868 -1.9949993250179,1.4522817001859 3.487867815777,3.5762860163218 c 10.9826289990011,0.3800020934509 5.311607784135,-6.4320191024673 8.9808779655959,-12.6530466424877 l 1.3774787912122,-11.704556904257 4.7364328954197,-0.3902795421219 -0.7464342453799,-2.5142838582527 -0.8719669539382,-0.8940715040857 -0.997499662511,0.726140850093 -0.871966953936,-0.8940715040857 2.493749156276,-1.8153521252327 c -3.6608402103328,-4.0710736112683 -6.3170662976308,-7.3079457775683 -6.2259203831749,-10.7560671660311 l -0.8719669539352,-0.8940715040858 -1.869466616457,-0.1679306539868 -0.74643424538,-2.5142838582526 -16.0889083117322,19.3562449473114 z"
     id="path812"
     inkscape:connector-curvature="0" />
  <path
     style="opacity:1;fill:#a97f4e;fill-opacity:1;stroke:none"
     d="m 343.5097085803163,356.7158670264045 0,3.4118352878604 16.5700910480983,0 0,3.4118352878643 -16.5700910480983,6.8236705757208 5.5233636826987,20.4710117271684 27.6168184134959,-3.4118352878606 2.7616818413479,-37.5301881664762 -35.901863937544,6.8236705757227 z"
     id="path508"
     inkscape:connector-curvature="0" />
  <path
     style="opacity:1;fill:#c0a282;fill-opacity:1;stroke:none"
     d="m 569.7789560578249,369.2758529554771 -6.3881338613468,2.0818891972283 -0.1112177733481,0.7429078459943 1.1521623719569,2.4511590846804 -2.2287235379882,-0.333653320035 -0.3336533200347,2.2287235379887 1.5258003305061,10.1026730913288 2.451159084676,-1.1521623719573 -0.5560888667228,3.714539229981 c -3.2096851318061,0.074727591871 -3.95559652952,1.7897967154567 -5.2359714893901,4.5330482819071 l 5.943262767968,0.889742186758 -1.0765611660322,2.1175057646417 5.3115726953188,0.035616567419 -1.2989967127201,3.6033214566361 20.7258184819661,-1.4545671956697 c 1.30812933811,-6.0743149376914 3.84097938783,-23.5918333023118 9.947102608382,-25.8549402691072 l 0.5560888667219,-3.714539229981 -30.3836204799189,0.00873614222 z"
     id="path608"
     inkscape:connector-curvature="0" />
  <path
     style="opacity:1;fill:#624f45;fill-opacity:1;stroke:none"
     d="m 920.644998137561,338.4205768910176 -4.3966356196312,7.6531841923776 c -14.5967674733787,-16.4969090508018 -14.2279555464978,-1.0031188968048 -10.6132041304297,8.3141998315113 l 9.324852766194,-0.9915234587033 -11.4312526110481,19.8982789001744 24.457249802873,3.1479769778073 10.1429012468128,-12.5756025273647 -10.6744827737361,-1.7392423986852 -1.349630007544,-2.7307658573831 5.337241386861,0.8696211993241 -6.2778471541011,-9.392426591057 14.6620941530612,-0.1219022593586 -1.4109086508521,-12.7842080875759 -17.7703784084571,0.4524100789261"
     id="path4087"
     inkscape:connector-curvature="0" />
  <path
     style="fill:#000000;fill-opacity:1;stroke:none;opacity:1"
     d="m 65.23463570847829,524.2210844660487 -27.01781122977396,-420.4018326474584 14.01339442158496,-0.9005937076584 1.80118741531805,27.7649173340954 7.00669721079204,-0.4502968538292 -2.25148426914712,-34.77161454488192 -28.02678884316493,1.8011874153168 13.45471366201582,428.30912356590374 z"
     id="path6"
     inkscape:connector-curvature="0"
     sodipodi:nodetypes="ccccccccc" />
  <path
     style="opacity:1;fill:#1a1a1a;fill-opacity:1;stroke:none"
     d="m 597.8679891387652,382.3603672283401 -0.3610514693227,64.5629997178416 3.2948157606138,1.0945090308549 0.9103380434971,-46.266505984167 0.336953159679,-19.367621319488 -4.1810554944659,-0.02338144505 z"
     id="path14"
     inkscape:connector-curvature="0" />
  <path
     style="opacity:1;fill:#000000;fill-opacity:1;stroke:none"
     d="m 1081.605778307275,386.8266443965142 4.557758304124,2.1937886688197 8.229187860465,0 0,-2.0907639660329 8.229187860461,0 -8.229187860461,71.7457107484933 -8.229187860465,0 -8.229187860461,-52.794013569646 z"
     id="path18"
     inkscape:connector-curvature="0"
     sodipodi:nodetypes="ccccccccc" />
  <path
     style="opacity:1;fill:#333333;fill-opacity:1;stroke:none"
     d="m 1087.399656811052,513.4973930769357 -28.358013192973,0.678841952824 0.230281229293,-1.9699691569602 c 6.621739682669,-9.815443555627 11.472577671744,-4.6495674564511 16.94414107226,-4.009964373545 l 0.921124917169,-7.8798766278395 12.104715808589,-2.5787850501576 -1.842249834337,15.7597532556784 z"
     id="path24"
     inkscape:connector-curvature="0" />
  <path
     style="opacity:1;fill:#7297a7;fill-opacity:1;stroke:none"
     d="m 813.7072540055252,506.732085737569 -2.4091776415449,-19.61555118995 -0.7352860080857,-20.5806376293941 13.9668714808489,-7.2110117645609 c 6.3156363952321,5.6349382376703 0.2037858884752,12.2603954616775 -0.2193189134108,17.6066516607117 -0.7873474435761,9.9487435080458 6.6752898399949,19.8302283088382 5.8862347758088,29.8005489231932 z"
     id="path30"
     inkscape:connector-curvature="0"
     sodipodi:nodetypes="ccccscc" />
  <path
     style="opacity:1;fill:#24140c;fill-opacity:1;stroke:none"
     d="m 576.4611708144642,465.4583750065423 -2.3036667319603,9.7516224838413 -8.2886810360319,0.9222815374497 0.9405412768092,24.0163999810362 -0.3673686149259,10.3507695855922 c -5.4649701243452,-0.1561315215186 -9.8294845825749,0.1237123330613 -12.3077778413081,4.8379527603906 l 30.5170741781941,0.072831483563 0.09855980526,-50.874139369323 z"
     id="path36"
     inkscape:connector-curvature="0"
     sodipodi:nodetypes="ccccccccc" />
  <path
     style="opacity:1;fill:#000000;fill-opacity:1;stroke:none"
     d="m 993.4678024233439,515.8695964838592 13.931036036314,-255.4057581508666 0,-181.62187246283158 6.965518018157,0 6.965518018161,437.02763061369068 -27.862072072632,0 z"
     id="path82"
     inkscape:connector-curvature="0" />
  <path
     style="opacity:1;fill:#565656;fill-opacity:1;stroke:none"
     d="m 1084.933855969704,459.3597424867979 -6.222894326147,39.595954401909 9.130364609106,-2.1080113464864 1.106709637106,-37.3219545000979 z"
     id="path84"
     inkscape:connector-curvature="0"
     sodipodi:nodetypes="ccccc" />
  <path
     style="opacity:1;fill:#363c41;fill-opacity:1;stroke:none"
     d="m 930.7096242310874,510.8795680016064 c -15.2806636843881,-18.2045537784015 -2.779212048377,-43.6174868289064 -2.779212048377,-62.6373042707059 l -19.4544843386378,0 0.04057649591,42.0844388068802 -0.04057649591,21.5315733430565 22.233696387018,-0.9787078792308 z"
     id="path88"
     inkscape:connector-curvature="0" />
  <path
     style="opacity:1;fill:#820000;fill-opacity:1;stroke:none"
     d="m 564.0152075682651,403.0841745213604 33.0200998358,-3.944382967193 -6.604019967162,61.928033679892 -16.2569557782808,3.2671018786001 -1.6789628660739,9.2596293968539 -10.6815012133362,0.7888765934405 z"
     id="path90"
     inkscape:connector-curvature="0"
     sodipodi:nodetypes="ccccccc" />
  <path
     style="opacity:1;fill:#393939;fill-opacity:1;stroke:none"
     d="m 1130.484286988887,510.8152198647423 -26.308311563015,-2.3149668356906 -10.450454932843,-63.5645318334917 -5.252477531763,-0.2372481542737 5.427596922082,68.9709140008334 36.859190530739,3.9181892085586 -0.2755434252,-6.7723563859361 z"
     id="path94"
     inkscape:connector-curvature="0" />
  <path
     style="opacity:1;fill:#6a190d;fill-opacity:1;stroke:none"
     d="m 754.6433615423513,410.1901007650503 -25.7267602414918,3.8664440011412 -1.1308298309832,2.9788926221908 2.0519458952472,0.7789477246091 -1.1308298309841,2.9788926221919 -8.2077835809901,-3.1157908984362 c 2.7865241556829,-6.6003576443468 5.4307267483141,-13.0195787264758 8.0651535824632,-14.7562748164619 8.511902068451,-5.6197831720681 24.4146480806571,-4.7326228989138 26.0791040067388,7.2688887447647 z"
     id="path100"
     inkscape:connector-curvature="0" />
  <path
     style="opacity:1;fill:#2f2f58;fill-opacity:1;stroke:none"
     d="m 646.7995361550922,369.75435968065 20.0509426592071,-0.123816382199 c -17.8124086856892,12.9456869521816 -25.593442219389,40.8801815673071 -30.5057645623938,72.8085502137745 -4.2507998437509,7.3227369508938 9.8096092934362,19.6193975797007 24.6007619492569,18.1122384595236 29.6521353013492,-3.0214336361824 35.430015678835,-19.9335878238043 35.941314716643,-25.3607501659922 2.3860621764502,-25.2938848391616 0.04010188531,-50.5800427383334 0.04010188531,-75.8604577648505 -39.6206626945951,1.8971494152256 -42.5079984375189,5.5271893133806 -50.1273566480201,10.4242356397363 z"
     id="path138"
     inkscape:connector-curvature="0"
     sodipodi:nodetypes="cccsccc" />
  <path
     style="opacity:1;fill:#254317;fill-opacity:1;stroke:none"
     d="m 724.3472645241821,474.217665988519 5.1671384731678,23.1486681699915 1.7698637508339,18.402518100921 10.4693364174708,-2.4027885972137 c 2.2869945504599,3.7638472315558 16.442869027957,3.4727904936854 19.8274914823261,0.9438217469636 -5.1769863722811,-22.6324569733869 8.0413116061659,-30.2413675572515 1.9329764229809,-38.3783488491209 z"
     id="path162"
     inkscape:connector-curvature="0"
     sodipodi:nodetypes="ccccccc" />
  <path
     style="opacity:1;fill:#225873;fill-opacity:1;stroke:none"
     d="m 464.7987771742982,356.1897235211784 -7.2663404280739,-0.6306088325868 -22.775720876235,53.9319649045199 3.097847505081,32.2131055113922 2.4221134760251,0.2102029441935 2.1020294419533,-24.2211347602501 2.422113476025,0.2102029441959 -0.420405888392,4.8442269520519 2.4221134760251,0.210202944192 5.264632840443,-4.4238210636592 12.7316169771521,-62.3443415440566 z"
     id="path190"
     inkscape:connector-curvature="0" />
  <path
     style="opacity:1;fill:#263f4a;fill-opacity:1;stroke:none"
     d="m 433.5050007672351,411.2663986370655 4.8723985009393,48.766998804963 1.9362159791741,20.5426355459222 -1.661170889437,0.1319825116109 -2.6285680538399,-18.7629212379922 -5.5311647824792,3.0265181645922 -1.661170889437,0.1319825116296 -1.661170889437,0.1319825116108 0.3651014094471,-1.753713753137 -1.661170889437,0.1319825116294 -1.6611708894361,0.1319825116295 -3.6874431883198,2.0176787763978 7.667129598366,-36.8279888158879 5.312184983898,-17.6691200430019 z"
     id="path202"
     inkscape:connector-curvature="0" />
  <path
     style="opacity:1;fill:#fcf2db;fill-opacity:1;stroke:none"
     d="m 287.9042503618043,356.7353519248952 -81.3283376797708,36.8612613123774 1.214549066296,4.5071092703987 79.1029546627241,-35.7121399073011 7.2872943977718,27.0426556223991 -6.2764604470231,-32.6988862978761"
     id="path4067"
     inkscape:connector-curvature="0" />
  <path
     style="opacity:1;fill:#d5590e;fill-opacity:1;stroke:none"
     d="m 409.8222560235325,334.2463205507358 47.5231636539602,-2.9147455378748 -6.9515159822672,14.3829201588792 -6.8141183678022,4.9929039000938 20.4040877972188,7.6668538037146 0.6104534599572,-1.6589502859361 -13.1169135839268,-4.9286917309588 20.9536782550808,-29.8932112314296 5.8297393706347,2.190529658203 c -8.2181105892549,-14.8107068385791 -56.7605409490652,1.4775229713675 -68.4385746028569,10.1623912653086 z"
     id="path216"
     inkscape:connector-curvature="0" />
  <path
     style="opacity:1;fill:#fcf2db;fill-opacity:1;stroke:none"
     d="m 153.4636422347315,503.3847044586453 -3.4954333087461,-5.7494396002411 16.123064910419,-17.6767154585748 -38.4497663962339,-63.2438356026509 4.9046245547921,-2.9818189645828 46.849824259777,66.0114562383107 -25.9323140200081,23.6403533877388 z"
     id="path218"
     inkscape:connector-curvature="0" />
  <path
     style="opacity:1;fill:#472e07;fill-opacity:1;stroke:none"
     d="m 575.7274348315074,344.6351751086105 -1.825781258106,16.5006196205771 21.9093750972689,-1.2692784323521 0,5.0771137294092 1.8257812581058,0 -2.9267273567461,-15.1958013921185 -18.9826477405231,-5.1126535255155 z"
     id="path262"
     inkscape:connector-curvature="0" />
  <path
     style="opacity:1;fill:#ca834d;fill-opacity:1;stroke:none"
     d="m 503.0570025879055,398.2928564143893 18.5779379646727,0.4222940577717 -0.6474264764661,-12.2851926313986 -7.9041706915359,3.7810540140205 8.0313650833318,-11.2263417076595 0.5292716075051,-22.439367850605 -15.7903423761948,2.6020607408116 -2.5093910920841,10.3218403520872 -0.2872440192291,28.8236530249702 z"
     id="path280"
     inkscape:connector-curvature="0" />
  <path
     style="opacity:1;fill:#232323;fill-opacity:1;stroke:none"
     d="m 1026.113574834927,398.0466329112857 -1.135388845845,0.026640132561 -1.135388845847,0.026640132561 -4.619776267359,-3.2271736008361 5.676944229233,-0.1332006628045 -1.174499287833,-1.640226932979 -1.135388845846,0.026640132561 0.02607362799,1.11124471036 -2.270777691694,0.053280265122 -0.195552209931,-8.3343353276996 7.960758734923,0.369141427254 0.799538942906,-0.018759937183 10.442092337675,1.8055249862474 -0.01609438001,-0.6859342573296 7.393345064989,1.3707284079227 0.19313256011,8.2312110879581 c -1.6333268189,0.038323472289 0.707668772815,-1.0390374801248 -4.947667824384,-1.2857027022751 -1.788405553761,-0.077970848744 -8.392659157596,1.0683298099757 -15.86135129908,2.3042821385605 z"
     id="path314"
     inkscape:connector-curvature="0"
     sodipodi:nodetypes="cccccccccccccccccc" />
  <path
     style="opacity:1;fill:#000000;fill-opacity:1;stroke:none"
     d="m 957.8267400634042,82.24142012291915 3.3180760120599,6.63615202411901 -26.5446080964762,9.95422803617842 -36.4988361326551,3.31807601205941 0,6.636152024119 136.0411164944381,-13.27230404823784 0,-3.31807601205959 -36.4988361326532,-6.63615202411877 0,-6.63615202411906 16.5903800602962,0 c -21.1195538167592,-9.47974316645387 -35.7622232579772,-1.80503335056062 -56.4072922050102,3.31807601205938 z"
     id="path316"
     inkscape:connector-curvature="0" />
  <path
     style="opacity:1;fill:#382a1a;fill-opacity:1;stroke:none"
     d="m 842.4322360419502,513.5611954850666 0.4278079422661,3.6586655797523 31.8977946036911,-0.021954578505 0.8734086466641,-6.5210555628159 -0.2139039711351,-1.8293327898759 c -4.514214699023,2.1693521062013 -10.5022657100272,6.0606025809507 -14.1619485873331,-2.1950105971684 l -18.8231586341531,6.9086879486176 z"
     id="path326"
     inkscape:connector-curvature="0" />
  <path
     style="opacity:1;fill:#51921e;fill-opacity:1;stroke:none"
     d="m 710.6283793286155,411.4298904685966 0,3.2406554076398 16.2032770382078,0.014722531481 6.481310815283,7.783461990931 -3.240655407642,9.0708906351014 25.9252432611338,8.4492601102373 -6.4813108152839,-7.7834619909322 c 30.3681818250138,-28.9885874204411 -20.7726011629829,-28.6727493997208 -38.8878648916988,-20.775528684458 z"
     id="path328"
     inkscape:connector-curvature="0" />
  <path
     style="opacity:1;fill:#7c5046;fill-opacity:1;stroke:none"
     d="m 616.7784765438302,338.4264913846139 15.45227292565,-4.1357391549714 -12.361818340521,19.7582005331133 52.5377279472141,-26.2660618949814 18.542727510781,-12.391742757839 -24.7236366810422,5.0252849825573 0,-5.3063255513344 c 19.7705651174542,-2.4620208454842 20.264728805614,-12.0077563749833 27.814091266172,-26.5471024637583 -26.646826569367,9.6060971580052 -68.585531471423,23.3988733975633 -77.2613646282548,49.863486307212 z"
     id="path750"
     inkscape:connector-curvature="0" />
  <path
     style="opacity:1;fill:#e86621;fill-opacity:1;stroke:none"
     d="m 639.2868271666288,309.2936900113099 -1.1281113927448,8.1018692054335 16.4853819595528,-0.099652785092 c -3.198766394902,-5.1297041635073 -7.6722425405491,-7.2151760153845 -15.357270566808,-8.0022164203452 z"
     id="path330"
     inkscape:connector-curvature="0" />
  <path
     style="opacity:1;fill:#fcf2db;fill-opacity:1;stroke:none"
     d="m 232.9082480313036,308.8577849769917 -62.1584728216514,-13.0230352571784 -36.7909168701448,99.2725980590001 -2.6983279204242,-2.035862271794 c 6.06607265992,-19.5506260100562 48.2230477013468,-103.845685804635 12.457500260383,-100.6944600080904 l -2.6983279204269,-2.0358622717974 c 15.055430007756,-14.8473168321809 77.87425109686,1.2907831550631 95.9602698158628,13.1199659090129 l -4.0717245436022,5.3966558408492 z"
     id="path340"
     inkscape:connector-curvature="0" />
  <path
     style="opacity:1;fill:#6a0906;fill-opacity:1;stroke:none"
     d="m 198.4871452616266,513.7749808833608 c -4.9398160733482,-13.2628834315968 -33.3121648281021,-18.0284962500842 -46.925714028273,-16.9935832513668 l 2.4670508240861,16.7199395671369 44.4586632041878,0.2736436842223 z"
     id="path342"
     inkscape:connector-curvature="0" />
  <path
     style="opacity:1;fill:#9e7850;fill-opacity:1;stroke:none"
     d="m 581.4109125373681,382.9278672815477 -2.7252256511192,6.6431690386944 -13.6261282556002,-0.8303961298367 0,0.8303961298367 16.3513539067189,1.6607922596731 0,-8.3039612983675 z"
     id="path350"
     inkscape:connector-curvature="0" />
  <path
     style="opacity:1;fill:#376a24;fill-opacity:1;stroke:none"
     d="m 756.0077566474869,440.3661673570557 -1.016059513875,-0.2851606110908 -3.3339318504267,0.8998370026209 -2.0321190277501,-0.5703212221822 -2.6195485784201,-3.488460087113 -1.0160595138741,-0.2851606110913 1.5141911555439,3.7518366122403 1.0160595138741,0.2851606110896 3.0838977052258,0.636066978787 2.6731273238178,3.1593378053827 -1.9963998641467,-0.7897360766684 -1.016059513875,-0.2851606110904 -2.1214169367511,-0.021784085965 -21.2836710459691,-6.3174951146399 -0.1428766544008,0.8776594179465 1.016059513875,0.2851606110914 0.107157490801,-0.6582445634604 6.0963570832481,1.7109636665463 c -6.9384380448381,-0.5651526801614 -15.1337230238943,19.686753734141 -12.4837169410979,31.7941099380597 l 18.8761810408978,1.6249354148845 1.0486767244937,0.041281801651 c 7.309276769724,-4.3685024041907 16.2607812900092,1.1657059555586 24.119564663369,1.8313444231383 3.6724658891791,-18.5676818129384 -8.5204956257937,-28.7342696148489 -11.5681637460286,-31.9750913132687 -1.072353763977,-1.1402497012438 0.9276440636688,-1.4233957093862 1.0787509714678,-2.2210799868677"
     id="path4011"
     inkscape:connector-curvature="0"
     sodipodi:nodetypes="ccccccccccccccccccccccsc" />
  <path
     style="opacity:1;fill:#46291a;fill-opacity:1;stroke:none"
     d="m 859.5160366589833,465.10179288184 0.5044305395999,25.5236148750941 0.03435299252,11.7841904616857 -0.5302676772599,1.8302510481328 c 5.0847164947199,3.4623760060211 11.153001907373,-0.063332630448 16.379280173946,0.3340447078345 l -0.014973558,-31.2487590579557 -0.6114767248271,-10.1616673962257 -3.839382235334,0.496830106136 -11.921963510645,1.4414952552983 z"
     id="path388"
     inkscape:connector-curvature="0" />
  <path
     style="opacity:1;fill:#000000;fill-opacity:1;stroke:none"
     d="m 1121.278107079286,373.5562418673301 0.305508981751,-2.0056524597178 c -21.494796365005,3.4252684303391 -16.607890083334,-10.0618919330754 -15.289488443381,-15.1210206169577 l 1.307930574898,-0.2428438405563 c 1.554473221575,4.3629856626161 -1.875721515291,17.1645562057728 19.671543640701,11.3840104057475 -0.445076143089,2.1626313771143 -0.974679053662,3.8288758943553 -5.99549475397,5.9855065114801 z"
     id="path420"
     inkscape:connector-curvature="0"
     sodipodi:nodetypes="cccccc" />
  <path
     style="opacity:1;fill:#3f3f3f;fill-opacity:1;stroke:none"
     d="m 852.5211073593153,462.1379232744258 4.1628160113878,-16.5060662495075 c -0.6993530899182,-6.2509640899407 -3.2483840942192,-21.0233281425699 -1.2738216994841,-31.9342923241701 3.0346928722961,-16.7652998821025 20.8293437156449,-7.3845043317701 23.088365204486,0.1373704047296 2.6933419593679,8.9714551866 0.5948547021229,36.3404851835429 0.0120604605,47.3154847829585 z"
     id="path454"
     inkscape:connector-curvature="0"
     sodipodi:nodetypes="cccccc" />
  <path
     style="opacity:1;fill:#644b0e;fill-opacity:1;stroke:none"
     d="m 353.3580855950913,371.4026020182786 -15.7624313975921,-0.9719795973575 8.980060225731,11.1318205883878 1.5782108227568,-4.501842135001 7.7214269335199,5.5352141069158 -2.5172665844169,-11.193212962945 z"
     id="path468"
     inkscape:connector-curvature="0" />
  <path
     style="opacity:1;fill:#9b0d09;fill-opacity:1;stroke:none"
     d="m 108.2595882793784,392.3189463117822 0,40.5623231687796 32.7671714041662,6.7603871947963 0,-47.3227103635759 c -14.0103062875327,0.2163323902351 -20.3437324175051,-0.18253045426 -23.4051224315471,10.1405807921932 l -4.6810244863091,0 -4.68102448631,-10.1405807921932 z"
     id="path490"
     inkscape:connector-curvature="0" />
  <path
     style="opacity:1;fill:#345d13;fill-opacity:1;stroke:none"
     d="M 741.769582190149,425.6715700519564 c 3.8813572514692,3.8322545242849 7.5547274710412,11.8632951679293 12.2204531544171,1.2092995846914 l -1.0651364575928,-1.0516615050214 -11.1553166968229,-0.1576380796678 z"
     id="path496"
     inkscape:connector-curvature="0" />
  <path
     style="opacity:1;fill:#2d2d2d;fill-opacity:1;stroke:none"
     d="m 1113.717776331378,350.1744768000876 c -0.270346934687,4.9357626075685 -1.625943707189,7.8777165718217 -6.758673367172,8.689722900649 l -1.931049533477,4.8276238336936 3.862099066955,0 0,0.9655247667388 c -7.675921895574,-0.3292439454578 -20.9731289831,-0.4769692347679 -17.379445801298,-10.6207724341265 l -14.482871501082,2.8965743002163 0,-9.6552476673875 c 12.098025327239,-2.4958815220199 24.58805370977,0.3997272534297 36.689941136074,2.8965743002162 z"
     id="path498"
     inkscape:connector-curvature="0" />
  <path
     style="opacity:1;fill:#3737a7;fill-opacity:1;stroke:none"
     d="m 622.0751099641264,515.0328906261279 77.7405543421151,0.048286208291 0.6012147008759,-8.9377996488237 c -18.4096489801092,-7.4971545505635 -36.8322999364659,0.8292285573407 -55.228360036789,-4.5033899731726 -8.3119936687549,-2.4095313022377 -18.5705743780759,-7.0860985430736 -23.1134090062019,13.3929034137371 z"
     id="path502"
     inkscape:connector-curvature="0" />
  <path
     style="opacity:1;fill:#15120e;fill-opacity:1;stroke:none"
     d="m 805.4482112689255,398.2392475000225 -0.03712230273,0.5585965750326 2.644493664242,2.4199978137792 c 1.7724699389169,-0.7440017475674 5.7506793769739,0.2144112846151 4.6543841139091,-2.496004453323 l 3.4258240556543,-0.8944593336855 c -3.7192744797372,-1.97580641131 -7.0621856489553,-1.3496360191235 -10.6875795310763,0.4118693981967 z"
     id="path514"
     inkscape:connector-curvature="0" />
  <path
     style="opacity:1;fill:#422c17;fill-opacity:1;stroke:none"
     d="m 948.9231091724061,510.9493938734158 -0.2757320711089,2.0549662472267 c -17.0687824203527,3.9353389724557 -25.1988388172931,7.1007678247769 -42.291841368703,1.8221996044366 l 0.827196213329,-5.1884472742129 14.7751749444619,4.8978879595493 8.6283817922258,-6.049269151512 0.2757320711088,-2.0549662472251 -4.239540033563,-3.1843734626593 z"
     id="path516"
     inkscape:connector-curvature="0"
     sodipodi:nodetypes="ccccccccc" />
  <path
     style="opacity:1;fill:#435020;fill-opacity:1;stroke:none"
     d="m 355.2090082463573,472.0326545390086 c 51.7401298566961,-22.6528934949566 20.8674027229681,-55.5878166952792 25.2007109773731,-81.5390161585903 l -31.6947459992871,1.276251671356 6.4940350219131,80.2627644872341 z"
     id="path532"
     inkscape:connector-curvature="0" />
  <path
     style="opacity:1;fill:#ffffff;fill-opacity:1;stroke:none"
     d="m 267.0437829076863,486.1689612160514 c -21.686893623415,3.0996375288111 -19.1408634116392,28.1874344087014 2.2595960796862,24.5672470658889 14.8587992687471,-2.511483842863 11.8591527933299,-26.5818424499328 -2.2595960796862,-24.5672470658889 z"
     id="path568"
     inkscape:connector-curvature="0" />
  <path
     style="opacity:1;fill:#007bc0;fill-opacity:1;stroke:none"
     d="m 666.8265861593541,292.7181756833338 -0.3277476364991,4.2986129649051 -35.3721466287469,10.273857802732 13.5513341677178,-7.6139830203157 -3.3153700554121,-13.2235865312189 25.4639301529369,6.2650987838979 z"
     id="path586"
     inkscape:connector-curvature="0" />
  <path
     style="opacity:1;fill:#3c3428;fill-opacity:1;stroke:none"
     d="m 825.8303155400423,390.9689187072816 -2.4900225500041,2.380145096655 -0.7065060550949,-0.445879123728 0.1852521923588,-1.8588912339177 c -6.092362654626,1.2694532605467 -18.2782020509909,-0.023428674032 -23.7197069172022,-3.1147845557612 6.6106599907821,-2.6385818504487 20.3065602554623,0.2563580860762 26.730983329942,3.0394098167521 z"
     id="path612"
     inkscape:connector-curvature="0" />
  <path
     style="opacity:1;fill:#000000;fill-opacity:1;stroke:none"
     d="m 507.2947875027716,364.1205884256741 10.9546875486347,7.846276793969 1.825781258106,-0.2476879089966 0,-6.8437631151452 -1.825781258106,0.2476879089929 0,3.1108014159755 -1.825781258106,0.2476879089913 -9.1289062905287,-4.3610030037889 z"
     id="path618"
     inkscape:connector-curvature="0" />
  <path
     style="opacity:1;fill:#f72100;fill-opacity:1;stroke:none"
     d="m 810.1391246473824,382.0107447696017 -1.3633417594579,-0.3136559699697 -4.8260550978921,-3.9813073987902 c 0.6860740570551,10.0211802706459 13.0455830977598,12.6737375053051 21.6085300609311,12.1488602867584 -1.975071592572,-7.2012558734722 -8.3616243418141,-10.5955814309621 -15.4191332035821,-7.8538969179986 z"
     id="path626"
     inkscape:connector-curvature="0" />
  <path
     style="opacity:1;fill:#000000;fill-opacity:1;stroke:none"
     d="m 739.3271512604703,414.8972342055711 0.263162669838,1.131102380323 9.7738111637382,0.3945308590783 c 1.2270771095759,3.5452247355001 3.1895510855788,1.7808459368293 5.2833219675231,0.00954367212 -4.6339643446699,-2.4316812439495 -10.7893224590231,-4.797142451302 -15.320295801097,-1.5351769115649 z"
     id="path654"
     inkscape:connector-curvature="0" />
  <path
     style="opacity:1;fill:#36231e;fill-opacity:1;stroke:none"
     d="m 627.4148702699352,338.0239168733088 4.3348996340441,4.0864850699434 18.0812790030141,-9.8693923749539 c -7.6413943071771,-2.1469542188071 -13.0251983932289,-2.7000594427202 -22.4161786370579,5.7829073050031 z"
     id="path662"
     inkscape:connector-curvature="0" />
  <path
     style="opacity:1;fill:#151527;fill-opacity:1;stroke:none"
     d="m 695.5017188265903,439.3120321282218 c -40.8994871182249,12.2186489177968 -46.7510690764378,39.2292589972025 -42.0293790240979,59.3672212240077 l 33.075469071421,3.9756798371538 z"
     id="path670"
     inkscape:connector-curvature="0"
     sodipodi:nodetypes="cccc" />
  <path
     style="opacity:1;fill:#af6f5f;fill-opacity:1;stroke:none"
     d="m 931.676521062983,372.0509500406298 5.6322285629021,-7.0794839565092 -19.8055095791519,0 c 2.090297364608,5.6146382823125 8.3772944308589,8.3212254424793 14.1732810162498,7.0794839565092 z"
     id="path678"
     inkscape:connector-curvature="0"
     sodipodi:nodetypes="cccc" />
  <path
     style="opacity:1;fill:#313b41;fill-opacity:1;stroke:none"
     d="m 532.1960186073913,511.7609838160938 0,1.4896745981605 -31.6959064446149,0.1522079425326 0,-2.9793491963205 15.158911777859,-4.7362538167223 16.536994666756,6.0737204723497 z"
     id="path686"
     inkscape:connector-curvature="0" />
  <path
     style="opacity:1;fill:#672f00;fill-opacity:1;stroke:none"
     d="m 358.0213626427665,381.8755296954641 -18.2398576516611,1.264645578032 -2.2975448106481,-0.6323227890162 -1.8182017046171,-1.8969683670497 -11.5868947727349,3.7939367340995 4.115746515265,2.5292911560661 2.2975448106459,0.6323227890177 27.5292076137498,-5.6909051011494 z"
     id="path704"
     inkscape:connector-curvature="0" />
  <path
     style="opacity:1;fill:#6e8fa2;fill-opacity:1;stroke:none"
     d="m 514.6827460299592,504.0998463828342 0,-37.2629799734302 10.235066664368,-19.1810812042326 0,-46.578724966788 -23.0288999948269,-1.0923560089266 0,102.4731949269337 12.7938333304591,1.6419472264436 z"
     id="path708"
     inkscape:connector-curvature="0" />
  <path
     style="opacity:1;fill:#000000;fill-opacity:1;stroke:none"
     d="M 88.09790293029834,151.0186116167925 C 85.97849934221255,132.4788892636282 69.44988193462847,130.3350186694522 41.39673849641157,132.6075347302402 l 0.53421435451672,8.7414941582595 46.16695007937097,9.6695827282912 z"
     id="path714"
     inkscape:connector-curvature="0" />
  <path
     style="opacity:1;fill:#1b130e;fill-opacity:1;stroke:none"
     d="m 924.3302542550433,350.8135259764386 -5.588838770284,-0.250960842248 -1.8547754597589,2.9321560017649 c 3.3323233934472,2.0126610915176 6.8712293176319,4.0180566939949 10.4357673566579,1.6747840852066 l -2.9921531266169,-4.3559792447239 z"
     id="path720"
     inkscape:connector-curvature="0" />
  <path
     style="opacity:1;fill:#4d5763;fill-opacity:1;stroke:none"
     d="m 901.9491345506539,374.2589688667693 26.2667950076972,13.3708383311643 8.0139143662442,45.1763820559054 -15.5061208219602,25.0580871737983 -2.1905808965712,-15.7673882394738 -10.6235109237708,4.1906265645638 -15.1419200331989,-61.9389698151896 9.1814233015597,-10.0895760707695 z"
     id="path726"
     inkscape:connector-curvature="0" />
  <path
     style="opacity:1;fill:#9ea433;fill-opacity:1;stroke:none"
     d="m 858.8463206928291,379.6506369411175 3.1655759312472,1.309293694125 -2.638490216932,1.5708485778947 c -1.508749422715,-1.0788060953866 -1.7666443576368,-1.7045892294426 -0.5270857143141,-2.8801422720197 z"
     id="path732"
     inkscape:connector-curvature="0" />
  <path
     style="opacity:1;fill:#e7e4e2;fill-opacity:1;stroke:none"
     d="m 831.0205958785752,509.938871453335 0,6.4120398233669 c -6.879904160352,0.8898280032927 -29.8499201216049,3.5386586332787 -32.307797983588,-4.1742923596969 l 12.4459578693682,-4.1248731848395 6.780495551172,3.2799509203803 13.0813445630479,-1.3928251992111 z"
     id="path746"
     inkscape:connector-curvature="0" />
  <path
     style="opacity:1;fill:#f14a0d;fill-opacity:1;stroke:none"
     d="m 803.0796089648981,408.9374054046209 1.362141983062,-1.86346682314 -6.6621059129401,1.5212384610774 6.2230653710287,2.530659606427 -1.6698424634451,1.1339897416864 c 5.2305857023372,1.0567590918096 10.0169664212591,-0.2850792603126 14.5722776882532,-3.1392891020023 l -13.82553666596,-0.1831318840475"
     id="path4063"
     inkscape:connector-curvature="0" />
  <path
     style="opacity:1;fill:#003657;fill-opacity:1;stroke:none"
     d="m 455.7033289139703,309.6683878737638 0.5232395578132,5.2421662212332 -7.2343847981601,1.7809686251836 30.7185078178231,0.1105102974313 3.0939528412692,-6.1326505338231 -27.101315418744,-1.0009946100174 z"
     id="path800"
     inkscape:connector-curvature="0" />
  <path
     style="opacity:1;fill:#a8a8a8;fill-opacity:1;stroke:none"
     d="m 377.8329468057594,459.7583642897628 3.8758051198429,53.6672304412818 -34.8822460785782,-0.4438615958738 0,-3.6282797922948 11.6274153595269,-2.2708993295705 0,-32.5850985510074 z"
     id="path820"
     inkscape:connector-curvature="0"
     sodipodi:nodetypes="ccccccc" />
  <path
     style="opacity:1;fill:#4e7512;fill-opacity:1;stroke:none"
     d="m 383.2861355871012,329.9503424194737 -3.8035177532061,15.983795604603 -51.2302706754239,-0.041248661541 14.8157385869381,-6.6922372118554 -0.4256481659141,-5.1573937002436 -10.1609245019021,1.0232290077409 50.804622509508,-5.1161450387043 z"
     id="path850"
     inkscape:connector-curvature="0" />
  <path
     style="opacity:1;fill:#3b2a18;fill-opacity:1;stroke:none"
     d="m 351.4788007255755,359.7224158964666 1.8332890590768,6.794642537338 9.1664452953859,-2.264880845784 0,-2.2648808457743 -5.4998671772319,-4.5297616915636 -5.49986717723,2.264880845784 z"
     id="path854"
     inkscape:connector-curvature="0" />
  <path
     style="opacity:1;fill:#151527;fill-opacity:1;stroke:none"
     d="m 666.4226664228824,331.6168269735913 -21.0903751387841,11.4837384944479 13.4391937602248,19.4149614551985 32.8425802007362,-4.9938881307211 -25.1913988221801,-25.9048118189235 z"
     id="path856"
     inkscape:connector-curvature="0" />
  <path
     style="opacity:1;fill:#472e07;fill-opacity:1;stroke:none"
     d="m 562.1723645336421,365.9518732709983 c 8.6658542061091,6.3028488140969 36.429696404291,10.1064119205913 47.0616075195181,7.2089940591528 -3.9905177038673,-6.5219395008663 -7.5361889756683,-9.2060468170669 -15.1757943313962,-7.282913470545 l 0.1996353092851,-4.0776870595411 -32.0854484974079,4.1516064709333"
     id="path4037"
     inkscape:connector-curvature="0" />
  <path
     style="opacity:1;fill:#d02700;fill-opacity:1;stroke:none"
     d="m 823.9864112489633,425.5030652806695 -6.3395100042161,-4.9039123243967 c -21.1990549119071,-1.5373501937781 -17.7127124469599,21.0275988612489 -6.3236738100501,43.82375907104 l 12.4647485961682,-5.9468593044366 0.1984352180912,-32.9729874422029 z"
     id="path862"
     inkscape:connector-curvature="0" />
  <path
     style="opacity:1;fill:#ae5000;fill-opacity:1;stroke:none"
     d="m 605.1592356752664,459.1709173402332 -2.3175354593368,0.074561665162 -0.8255935081121,-7.3191195516079 -2.317535459339,0.074561665162 2.683178901364,23.7871385427185 -13.9052127560079,0.4473699909739 11.2691871666818,-44.4366489657725 2.3175354593351,-0.074561665162 -0.6663484431151,14.7128007683779 2.3175354593351,-0.074561665162 -0.4127967540542,-3.6595597758 1.8575853932472,16.4680189911142 z"
     id="path908"
     inkscape:connector-curvature="0" />
  <path
     style="opacity:1;fill:#000000;fill-opacity:1;stroke:none"
     d="m 434.1005130246975,326.9734604177611 0,1.6589502859362 31.5200554327981,-6.6358011437463 c -8.7061711005922,-3.611534772485 -23.0975648310968,1.4217203950479 -31.5200554327981,4.9768508578102 z"
     id="path918"
     inkscape:connector-curvature="0" />
  <path
     style="opacity:1;fill:#d00000;fill-opacity:1;stroke:none"
     d="m 123.6029320499324,382.8749908812737 c 2.5992320264758,4.8021593368298 13.8060715644651,12.0763994439318 -0.8144507380089,12.0516987984717 l -0.116350105428,1.721671256928 88.150432311801,-0.9609528857545 0.1163501054298,-1.7216712569242 -60.8213721831781,-2.3807586875011 c -2.9332250681209,-8.3823822840193 -11.4813224434028,-9.8801727064958 -26.514609390615,-8.7099872252199 z"
     id="path924"
     inkscape:connector-curvature="0" />
  <path
     style="opacity:1;fill:#000000;fill-opacity:1;stroke:none"
     d="M 50.47834045765274,130.9278569372526 66.60496237127868,130.36063418662 c -1.49217200149084,-6.3745456077168 -12.38208835794917,-12.8881383102842 -16.12662191362593,0.5672227506326 z"
     id="path964"
     inkscape:connector-curvature="0" />
  <path
     style="opacity:1;fill:#6e8fa2;fill-opacity:1;stroke:none"
     d="m 500.2379216347694,360.0217962557536 23.9204872133067,-4.7017917461079 c 12.274354508093,-6.5407108233652 20.7683835023709,-13.3046034620703 0.3641480387511,-8.4156143037273 l -9.3011529902393,-4.290733790959 c -17.1315510301919,9.0059864195597 -19.7491182625279,13.7562049811869 -14.9834822618188,17.4081398407922 z"
     id="path1016"
     inkscape:connector-curvature="0" />
  <path
     style="opacity:1;fill:#3c3124;fill-opacity:1;stroke:none"
     d="M 564.153575007697,373.5845910731998 c 2.5291040769422,7.2163909239483 8.3326363173901,6.8611017140314 13.2265350596273,6.9368975587215 l -0.1474904270258,-6.5074371897608 -13.0790446326059,-0.4294603689611"
     id="path4071"
     inkscape:connector-curvature="0" />
  <path
     style="opacity:1;fill:#926d15;fill-opacity:1;stroke:none"
     d="m 383.0496729501455,352.0332991218359 c -10.083312344474,-7.346548107208 -36.9992659266108,-5.5579288535849 -45.8429893273091,-2.6028897256746 10.9898289626339,8.9081376463317 30.4883497099789,4.5395760882886 40.9080073784888,3.578244743398 l 0.909019105251,1.4865328382091 -5.0324535544618,3.0773598199161 9.0584163980311,-5.5392476758489 z"
     id="path250"
     inkscape:connector-curvature="0" />
  <path
     style="opacity:1;fill:#000000;fill-opacity:1;stroke:none"
     d="m 1080.644883483289,359.7998231573716 c 1.423155358051,1.3422052077261 5.282129156515,2.4836940720788 7.505484646922,2.5032650534053 l 0,-2.7308346037147 -7.505484646922,0.2275695503094 z"
     id="path690"
     inkscape:connector-curvature="0" />
  <path
     style="opacity:1;fill:#1e1334;fill-opacity:1;stroke:none"
     d="m 1312.134992826523,514.3820097822687 -1.117614820579,-4.3832907786302 -12.499252799931,2.1601015831766 c 8.938807082856,-21.9253731682761 8.538518063987,-39.7233364439739 4.961804210658,-60.24218745127 -0.859249097315,-4.9293303655126 0.762843758481,-11.4926430512957 2.407931406563,-14.8478991921357 l 12.203590067543,0.8160339409083 1.737493503221,28.878109091345 0.477817461986,28.1036700978981 1.018460155267,13.9228406394899 -0.317589179634,5.2033749254346 z"
     id="path142"
     inkscape:connector-curvature="0"
     sodipodi:nodetypes="cccsccccccc" />
  <path
     style="opacity:1;fill:#e18851;fill-opacity:1;stroke:none"
     d="m 1321.754830232337,352.0029628085654 -2.273372493246,2.2798553026138 c -3.646320648037,-1.6827912467933 -9.523292869968,-2.1658686367132 -12.222397869757,-1.6256868030866 l 7.868535616952,5.8906293284063 -0.192882733689,0.2947680799094 -17.197692481373,-11.9378373301271 c -1.178702678279,1.9676497271595 -1.050022366292,10.2764963623062 2.316156650992,13.181541989473 l -1.157296402136,1.7686084794546 c 2.144105858265,2.6530030291398 2.203835998002,4.8141801661931 1.791947582384,6.8164443713483 l 0.537427890044,0.3730574165664 1.653503981151,-0.1381894065937 c -0.885524630366,1.3532802548618 -3.971867588835,6.9078729811707 2.288155161405,8.4468634442083 l 0.53742789004,0.3730574165667 -1.335396467667,12.7900953061864 4.327424609935,7.7191378777961 c -1.440262028687,2.7338508895372 -1.17595891154,9.8727272569831 1.737508449925,14.0658462292005 l -0.726121815278,-9.9345223832464 1.972352873863,-22.2070905505109 2.465877939033,-6.0041516164321 0.261239751982,-12.249750004533 7.347601865436,-9.9026771472015 z"
     id="path334"
     inkscape:connector-curvature="0" />
  <path
     style="opacity:1;fill:#ffcf78;fill-opacity:1;stroke:none"
     d="m 1359.943812335859,364.3513988131828 c -6.900367278086,-1.6182349634713 -13.070901703212,-4.8897451023424 -19.742729403812,-6.8695128682718 -3.178714175378,-0.9432973688369 -6.58245517359,-0.4603522442916 -9.757474177192,-1.299429173109 -14.522207828605,-3.8376826347934 -30.138424715432,-8.9973268959586 -42.574909956044,-16.6352993681675 -5.828824739655,-3.5797183539425 -16.185674679515,-7.191798850725 -19.810349243618,-12.9943960432691 l 14.312902597117,6.2679351767046 -0.118397002749,1.5815596944791 8.699512074939,0.8050431358593 c 0.01718789963,4.158428950778 4.692741782485,4.8017097313856 8.383786734293,5.0225356544686 l 0.118397002749,-1.581559694479 17.477955485038,0.555713142065 0.149234976478,7.7552361159104 11.450952485025,3.8723535205868 6.469775012059,3.5671755266745 5.875779278841,0.5390799457744 3.646038269402,3.3012650552483 5.008857367893,-1.0884458770063 10.410668499601,7.2007460565322 z"
     id="path374"
     inkscape:connector-curvature="0" />
  <path
     style="opacity:1;fill:#5e2300;fill-opacity:1;stroke:none"
     d="m 1307.806868501817,434.4806446196478 3.684949333066,1.2094377952643 7.437718066294,0.1593034594613 -0.03390970015,1.1297860655362 c 4.769383853948,-0.8535075657108 3.065299094028,-1.9500499572287 2.510989890909,-2.9609184155643 -1.07701370845,-1.9588818175064 -0.870672006847,-25.8991847159997 -2.336348950575,-40.2452822926929 -0.493952413477,-4.8289474026511 -2.041746352575,-19.9740891199276 -10.275959405812,-15.3617388947304 -13.785167783944,7.7207363462674 -13.827170583048,53.2995544018923 -9.361030817373,59.521986644008 3.090060158756,-0.3885071679439 -3.397924959117,0.9820268612414 8.373591583651,-3.4525743612821 z"
     id="path410"
     inkscape:connector-curvature="0"
     sodipodi:nodetypes="ccccccccc" />
  <path
     style="opacity:1;fill:#4662c3;fill-opacity:1;stroke:none"
     d="m 1387.165895255961,428.9695614640641 0.765353141244,3.0332435362802 -0.366769434379,0.013127487871 -13.029082279721,-0.082528431326 c 4.175525047503,-10.8565300641568 9.670940381562,-4.0414557734094 12.630498572856,-2.9638425928246 z"
     id="path26"
     inkscape:connector-curvature="0"
     sodipodi:nodetypes="ccccc" />
  <path
     style="opacity:1;fill:#0e1025;fill-opacity:1;stroke:none"
     d="m 1203.743909947568,422.5842060483427 3.378191701442,10.1345751043274 c -14.492442399181,1.0797422991391 -11.807117815711,22.1888936022094 0,25.1113981172639 l -3.378191701442,-16.1398697687312 10.134575104325,0 0,-19.1061034528599 z"
     id="path64"
     inkscape:connector-curvature="0"
     sodipodi:nodetypes="ccccccc" />
  <path
     style="color:#000000;fill:url(#linearGradient4574);fill-opacity:1;fill-rule:nonzero;stroke:none;stroke-width:1.0629920959;marker:none;visibility:visible;display:inline;overflow:visible;enable-background:accumulate"
     d="m 429.1057420398953,500.7488606035231 c -9.9693044215146,0 -18.0596526614953,3.8177507141679 -18.0596526614953,8.5226541986508 0,4.7049034844831 8.0903482399807,8.522654198651 18.0596526614953,8.522654198651 9.9693044215146,0 18.0316532000045,-3.8177507141679 18.0316532000045,-8.522654198651 0,-4.7049034844831 -8.0623487784899,-8.5226541986507 -18.0316532000045,-8.5226541986507 z m 0,1.8243381192001 c 7.5331275936867,0 13.6357377459661,3.0015548012858 13.6357377459661,6.6983160794507 0,3.6967612781648 -6.1026101522794,6.6983160794509 -13.6357377459661,6.6983160794509 -7.5331275936868,0 -13.6637372074569,-3.0015548012859 -13.6637372074569,-6.6983160794508 0,-3.6967612781652 6.1306096137701,-6.6983160794506 13.6637372074569,-6.6983160794506 z"
     id="path4168"
     inkscape:connector-curvature="0" />
  <path
     id="path4174"
     d="m 429.1044034321563,489.6881238436534 c -9.0160726563537,0 -16.3328486783049,3.4527100755898 -16.3328486783049,7.7077463212166 0,4.2550362456267 7.3167760219512,7.7077463212163 16.3328486783049,7.7077463212163 9.0160726563538,0 16.3075264322921,-3.4527100755896 16.3075264322921,-7.7077463212162 0,-4.2550362456269 -7.2914537759383,-7.7077463212165 -16.3075264322921,-7.7077463212165 z m 0,1.6499009697172 c 6.8128349624562,0 12.3319338082706,2.7145561040363 12.3319338082706,6.0578453514993 0,3.3432892474629 -5.5190988458144,6.0578453514989 -12.3319338082706,6.0578453514989 -6.8128349624562,0 -12.3572560542833,-2.714556104036 -12.3572560542833,-6.0578453514989 0,-3.3432892474628 5.5444210918273,-6.0578453514993 12.3572560542833,-6.0578453514993 z"
     style="color:#000000;fill:url(#linearGradient4571);fill-opacity:1;fill-rule:nonzero;stroke:none;stroke-width:1.0629920959;marker:none;visibility:visible;display:inline;overflow:visible;enable-background:accumulate"
     inkscape:connector-curvature="0" />
  <path
     inkscape:connector-curvature="0"
     style="color:#000000;fill:url(#linearGradient4568);fill-opacity:1;fill-rule:nonzero;stroke:none;stroke-width:1.0629920959;marker:none;visibility:visible;display:inline;overflow:visible;enable-background:accumulate"
     d="m 429.2509957804606,480.5315137998067 c -7.9161898503988,0 -14.3403825438543,3.0315093387687 -14.3403825438543,6.7674680010998 0,3.7359586623309 6.4241926934555,6.7674680010997 14.3403825438543,6.7674680010997 7.9161898503992,0 14.318149392624,-3.0315093387688 14.318149392624,-6.7674680010997 0,-3.7359586623311 -6.4019595422245,-6.7674680010998 -14.318149392624,-6.7674680010998 z m 0,1.4486273356985 c 5.981728080267,0 10.8275446493911,2.3834037610564 10.8275446493911,5.3188406654012 0,2.9354369043446 -4.8458165691241,5.318840665401 -10.8275446493911,5.318840665401 -5.9817280802669,0 -10.8497778006217,-2.3834037610564 -10.8497778006217,-5.318840665401 0,-2.9354369043448 4.8680497203546,-5.3188406654012 10.8497778006217,-5.3188406654012 z"
     id="path4176" />
  <path
     inkscape:connector-curvature="0"
     id="path4576"
     d="m 478.7182330521358,492.154301179315 c -9.1396478235257,3.9816916393357 -15.0319172437135,10.7129705846481 -13.1528017030528,15.0263267701658 1.8791155406611,4.3133561855185 10.8209670494176,4.5821437504038 19.9606148729433,0.6004521110683 9.1396478235256,-3.9816916393352 15.006247928538,-10.7017877360747 13.1271323878772,-15.0151439215931 -1.879115540661,-4.3133561855182 -10.7952977342419,-4.5933265989767 -19.9349455577675,-0.611634959641 z m 0.7286317609945,1.672514672592 c 6.9062123398896,-3.0086944775304 13.6997628615521,-2.6942851814769 15.1762313142681,0.6948275130011 1.4764684527161,3.3891126944782 -2.9194693264775,8.5782275455185 -9.8256816663671,11.5869220230485 -6.9062123398895,3.0086944775305 -13.7254321767272,2.7054680300499 -15.2019006294434,-0.6836446644278 -1.4764684527161,-3.3891126944786 2.9451386416526,-8.5894103940912 9.8513509815424,-11.5981048716215 z"
     style="color:#000000;fill:url(#linearGradient4582);fill-opacity:1;fill-rule:nonzero;stroke:none;stroke-width:1.0629920959;marker:none;visibility:visible;display:inline;overflow:visible;enable-background:accumulate" />
  <path
     inkscape:connector-curvature="0"
     style="color:#000000;fill:url(#linearGradient4584);fill-opacity:1;fill-rule:nonzero;stroke:none;stroke-width:1.0629920959;marker:none;visibility:visible;display:inline;overflow:visible;enable-background:accumulate"
     d="m 473.8167407222426,482.2685106363139 c -8.2657450656794,3.6009755141966 -13.5946152613349,9.6886319318449 -11.8951745051955,13.5895593302939 1.6994407561393,3.9009273984491 9.7863021334778,4.1440143894434 18.0520471991572,0.5430388752467 8.2657450656797,-3.6009755141966 13.5714003607889,-9.6785183500968 11.8719596046498,-13.5794457485455 -1.6994407561394,-3.900927398449 -9.7630872329318,-4.1541279711916 -18.0288322986112,-0.5531524569951 z m 0.6589624129321,1.5125943766312 c 6.2458632622626,-2.7210131081606 12.3898370550314,-2.436666584352 13.7251304999559,0.6283904148151 1.3352934449243,3.0650569991671 -2.6403193695956,7.7580059293019 -8.8861826318582,10.4790190374626 -6.2458632622627,2.7210131081606 -12.4130519555771,2.4467801661004 -13.7483454005015,-0.6182768330667 -1.3352934449243,-3.065056999167 2.6635342701414,-7.7681195110505 8.909397532404,-10.4891326192111 z"
     id="path4578" />
  <path
     id="path4580"
     d="m 469.8168737363885,474.5122049994169 c -7.2573957297034,3.1616876774979 -11.9361898970524,8.5067027170719 -10.4440661999761,11.9317507458257 1.4921236970761,3.4250480287538 8.5924579997014,3.6384805114123 15.8498537294047,0.4767928339145 7.2573957297036,-3.161687677498 11.9158070133862,-8.4978229047372 10.42368331631,-11.9228709334911 -1.4921236970761,-3.4250480287536 -8.572075116035,-3.6473603237473 -15.8294708457386,-0.4856726462493 z m 0.5785747036288,1.3280709582149 c 5.4839220188472,-2.3890730665802 10.8783842013539,-2.1394143568997 12.0507834065183,0.5517322246004 1.1723992051645,2.6911465814997 -2.3182232655006,6.8115963721298 -7.8021452843477,9.2006694387097 -5.4839220188472,2.3890730665799 -10.89876708502,2.1482941692345 -12.0711662901846,-0.5428524122654 -1.1723992051644,-2.6911465814998 2.3386061491667,-6.8204761844647 7.8225281680138,-9.2095492510449 z"
     style="color:#000000;fill:url(#linearGradient4586);fill-opacity:1;fill-rule:nonzero;stroke:none;stroke-width:1.0629920959;marker:none;visibility:visible;display:inline;overflow:visible;enable-background:accumulate"
     inkscape:connector-curvature="0" />
  <path
     style="opacity:1;fill:#263f4a;fill-opacity:1;stroke:none"
     d="m 467.3107125897212,482.7659965995841 1.4530268212088,-0.6718503505671 -4.305122461069,-16.939483723295 2.2504921784612,-2.7614991576975 1.4530268212088,-0.6718503505675 0.6555614639528,1.4177984565591 1.4530268212069,-0.6718503505655 -3.277807319766,-7.0889922828014 1.453026821208,-0.6718503505671 1.638903659883,3.544496141398 1.453026821208,-0.6718503505672 -23.1844860795969,-34.8842576965626 -2.9060536424141,1.3437007011344 5.7895377214382,27.4390797108714 16.0738403730702,31.2884096032291 z"
     id="path188"
     inkscape:connector-curvature="0" />
  <path
     style="opacity:1;color:#000000;fill:#121a33;fill-opacity:1;fill-rule:nonzero;stroke:none;stroke-width:1.06299209590000010;marker:none;visibility:visible;display:inline;overflow:visible;enable-background:accumulate"
     d="m 1137.255588992533,435.4399437867487 11.522346393035,-4.1375698411352 c -0.61926407733,5.1830789888705 -6.345197494792,6.915567018573 -11.522346393035,4.1375698411352 z"
     id="path4624"
     inkscape:connector-curvature="0"
     sodipodi:nodetypes="ccc" />
</svg>
